<svg xmlns="http://www.w3.org/2000/svg" width="22" height="22" viewBox="0 0 22 22">
  <g id="Block_Artist-Song_20" data-name="Block Artist-Song 20" transform="translate(-4.6 -4.575)">
    <path id="Контур_863" data-name="Контур 863" d="M22.8,9.4,9.4,22.8a9.521,9.521,0,0,0,15.7-7.2A9.866,9.866,0,0,0,22.8,9.4Z" transform="translate(0 -0.025)" fill="none"/>
    <path id="Контур_864" data-name="Контур 864" d="M21.7,8.3A9.719,9.719,0,0,0,15.5,6,9.227,9.227,0,0,0,8.8,8.8a9.434,9.434,0,0,0-2.7,6.8,9.52,9.52,0,0,0,2.3,6.2Z" fill="none"/>
    <path id="Контур_865" data-name="Контур 865" d="M23.3,7.8a10.933,10.933,0,0,0-15.5,0,10.781,10.781,0,0,0-3.2,7.791,10.949,10.949,0,0,0,3.2,7.791,11.147,11.147,0,0,0,7.8,3.2,11.325,11.325,0,0,0,7.8-3.2A10.964,10.964,0,0,0,23.3,7.8ZM8.8,8.8A9.4,9.4,0,0,1,15.5,6a9.726,9.726,0,0,1,6.2,2.3L8.3,21.681A9.311,9.311,0,0,1,6,15.488,9.888,9.888,0,0,1,8.8,8.8ZM22.3,22.28a9.553,9.553,0,0,1-12.9.5L22.8,9.395a9.311,9.311,0,0,1,2.3,6.193A9.449,9.449,0,0,1,22.3,22.28Z" fill="#fff"/>
  </g>
</svg>
