<svg id="EditFlow_24" data-name="EditFlow 24" xmlns="http://www.w3.org/2000/svg" width="24" height="24" viewBox="0 0 24 24">
  <path id="Контур_803" data-name="Контур 803" d="M20,0H10.7a4.012,4.012,0,0,0-4,4v6.8a7.959,7.959,0,0,1,6.7,7.9,5.7,5.7,0,0,1-.1,1.3H20a4.012,4.012,0,0,0,4-4V4A4.012,4.012,0,0,0,20,0ZM8.2,4a2.476,2.476,0,0,1,2.5-2.5H20A2.476,2.476,0,0,1,22.5,4v8.9a4.73,4.73,0,0,1-3.8-1.7,5.447,5.447,0,0,0-5-1.8,7.413,7.413,0,0,0-3,1.3A27.181,27.181,0,0,0,8.2,9.6ZM22.5,16A2.476,2.476,0,0,1,20,18.5H14.8a9.361,9.361,0,0,0-3-6.8,4.958,4.958,0,0,1,2-.8,4.189,4.189,0,0,1,3.8,1.4,6.815,6.815,0,0,0,4.9,2.1Z" fill="#fff"/>
  <path id="Контур_804" data-name="Контур 804" d="M5.5,13a5.5,5.5,0,0,0,0,11,5.5,5.5,0,0,0,0-11ZM3.4,22H2V20.6l4.2-4.2,1.4,1.4Zm4.7-4.6L6.6,16l.9-1h0L9,16.4Z" fill="#fff"/>
</svg>
