<svg id="Podcasts" xmlns="http://www.w3.org/2000/svg" width="24" height="24" viewBox="0 0 24 24">
  <path id="Контур_777" data-name="Контур 777" d="M20,0H4A4.012,4.012,0,0,0,0,4V20a4.012,4.012,0,0,0,4,4H20a4.012,4.012,0,0,0,4-4V4A4.012,4.012,0,0,0,20,0Zm2.5,20A2.476,2.476,0,0,1,20,22.5H4A2.476,2.476,0,0,1,1.5,20V4A2.476,2.476,0,0,1,4,1.5H20A2.476,2.476,0,0,1,22.5,4Z" fill="#2dceef"/>
  <path id="Объединение_121" data-name="Объединение 121" d="M6945.8-1489.5a8.791,8.791,0,0,0,2.8-6.4,8.542,8.542,0,0,0-2.4-6.1l.9-1a9.9,9.9,0,0,1,2.9,7.1,10.519,10.519,0,0,1-3.2,7.5ZM6934-1496a10.272,10.272,0,0,1,2.9-7l1.1,1a9.124,9.124,0,0,0-2.6,6,9.2,9.2,0,0,0,2.8,6.4l-1,1.1A10.7,10.7,0,0,1,6934-1496Zm9.5,3.9a4.854,4.854,0,0,0,1.7-3.8,5.492,5.492,0,0,0-1.4-3.7l1.1-1a6.573,6.573,0,0,1,1.8,4.7,5.96,5.96,0,0,1-2.2,4.9Zm-6-3.9a6.1,6.1,0,0,1,1.8-4.6l1.1,1a5.245,5.245,0,0,0-1.4,3.6,5.218,5.218,0,0,0,1.7,3.9l-1,1.1A6.813,6.813,0,0,1,6937.5-1496Z" transform="translate(-6930.1 1507.8)" fill="#2dceef"/>
</svg>
